<svg id="visual" viewBox="0 0 900 600" width="900" height="600" xmlns="http://www.w3.org/2000/svg" xmlns:xlink="http://www.w3.org/1999/xlink" version="1.1"><rect x="0" y="0" width="900" height="600" fill="#ffffff"></rect><path d="M0 414L16.7 411.8C33.3 409.7 66.7 405.3 100 414.3C133.3 423.3 166.7 445.7 200 460.5C233.3 475.3 266.7 482.7 300 475.5C333.3 468.3 366.7 446.7 400 444.3C433.3 442 466.7 459 500 463.5C533.3 468 566.7 460 600 459.3C633.3 458.7 666.7 465.3 700 457.7C733.3 450 766.7 428 800 423.3C833.3 418.7 866.7 431.3 883.3 437.7L900 444L900 601L883.3 601C866.7 601 833.3 601 800 601C766.7 601 733.3 601 700 601C666.7 601 633.3 601 600 601C566.7 601 533.3 601 500 601C466.7 601 433.3 601 400 601C366.7 601 333.3 601 300 601C266.7 601 233.3 601 200 601C166.7 601 133.3 601 100 601C66.7 601 33.3 601 16.7 601L0 601Z" fill="#2d9b9b"></path><path d="M0 495L16.7 486.3C33.3 477.7 66.7 460.3 100 461.7C133.3 463 166.7 483 200 487C233.3 491 266.7 479 300 479.3C333.3 479.7 366.7 492.3 400 492.2C433.3 492 466.7 479 500 473.7C533.3 468.3 566.7 470.7 600 467.7C633.3 464.7 666.7 456.3 700 452.8C733.3 449.3 766.7 450.7 800 454.5C833.3 458.3 866.7 464.7 883.3 467.8L900 471L900 601L883.3 601C866.7 601 833.3 601 800 601C766.7 601 733.3 601 700 601C666.7 601 633.3 601 600 601C566.7 601 533.3 601 500 601C466.7 601 433.3 601 400 601C366.7 601 333.3 601 300 601C266.7 601 233.3 601 200 601C166.7 601 133.3 601 100 601C66.7 601 33.3 601 16.7 601L0 601Z" fill="#0097b8"></path><path d="M0 492L16.7 497.8C33.3 503.7 66.7 515.3 100 512.7C133.3 510 166.7 493 200 491.2C233.3 489.3 266.7 502.7 300 502.7C333.3 502.7 366.7 489.3 400 488.2C433.3 487 466.7 498 500 495.5C533.3 493 566.7 477 600 470C633.3 463 666.7 465 700 468.3C733.3 471.7 766.7 476.3 800 485.7C833.3 495 866.7 509 883.3 516L900 523L900 601L883.3 601C866.7 601 833.3 601 800 601C766.7 601 733.3 601 700 601C666.7 601 633.3 601 600 601C566.7 601 533.3 601 500 601C466.7 601 433.3 601 400 601C366.7 601 333.3 601 300 601C266.7 601 233.3 601 200 601C166.7 601 133.3 601 100 601C66.7 601 33.3 601 16.7 601L0 601Z" fill="#008dd3"></path><path d="M0 516L16.7 512.2C33.3 508.3 66.7 500.7 100 500.7C133.3 500.7 166.7 508.3 200 516.5C233.3 524.7 266.7 533.3 300 532.5C333.3 531.7 366.7 521.3 400 515.7C433.3 510 466.7 509 500 511.5C533.3 514 566.7 520 600 525.7C633.3 531.3 666.7 536.7 700 533.3C733.3 530 766.7 518 800 511.3C833.3 504.7 866.7 503.3 883.3 502.7L900 502L900 601L883.3 601C866.7 601 833.3 601 800 601C766.7 601 733.3 601 700 601C666.7 601 633.3 601 600 601C566.7 601 533.3 601 500 601C466.7 601 433.3 601 400 601C366.7 601 333.3 601 300 601C266.7 601 233.3 601 200 601C166.7 601 133.3 601 100 601C66.7 601 33.3 601 16.7 601L0 601Z" fill="#007ce1"></path><path d="M0 552L16.7 550.5C33.3 549 66.7 546 100 542.5C133.3 539 166.7 535 200 530.7C233.3 526.3 266.7 521.7 300 526C333.3 530.3 366.7 543.7 400 551C433.3 558.3 466.7 559.7 500 557.5C533.3 555.3 566.7 549.7 600 550.3C633.3 551 666.7 558 700 558C733.3 558 766.7 551 800 547.3C833.3 543.7 866.7 543.3 883.3 543.2L900 543L900 601L883.3 601C866.7 601 833.3 601 800 601C766.7 601 733.3 601 700 601C666.7 601 633.3 601 600 601C566.7 601 533.3 601 500 601C466.7 601 433.3 601 400 601C366.7 601 333.3 601 300 601C266.7 601 233.3 601 200 601C166.7 601 133.3 601 100 601C66.7 601 33.3 601 16.7 601L0 601Z" fill="#0066e8"></path><path d="M0 550L16.7 550.7C33.3 551.3 66.7 552.7 100 553.7C133.3 554.7 166.7 555.3 200 556.3C233.3 557.3 266.7 558.7 300 557C333.3 555.3 366.7 550.7 400 554.8C433.3 559 466.7 572 500 577C533.3 582 566.7 579 600 573.7C633.3 568.3 666.7 560.7 700 558C733.3 555.3 766.7 557.7 800 561C833.3 564.3 866.7 568.7 883.3 570.8L900 573L900 601L883.3 601C866.7 601 833.3 601 800 601C766.7 601 733.3 601 700 601C666.7 601 633.3 601 600 601C566.7 601 533.3 601 500 601C466.7 601 433.3 601 400 601C366.7 601 333.3 601 300 601C266.7 601 233.3 601 200 601C166.7 601 133.3 601 100 601C66.7 601 33.3 601 16.7 601L0 601Z" fill="#4f46e5"></path></svg>